# xmcd
#
# Track frame offsets: 
#        150
#        15620
#        32550
#        48675
#        64200
#        81675
#        104250
#        121725
#        132225
#        148200
#        163125
#        176625
#
# Disc length: 2572 seconds
#
# Revision: 0
# Processed by: cddbd v1.5.2PL0 Copyright (c) Steve Scherf et al.
# Submitted via: ExactAudioCopy v1.0b3
#
DISCID=ae0a0a0c
DTITLE=李亚霖 - DTS ES 正品 黄金十年-极限人声
DYEAR=2008
DGENRE=DTS ES
TTITLE0=月圆花好
TTITLE1=夜上海
TTITLE2=何日君再来
TTITLE3=四季歌
TTITLE4=月儿弯弯照九洲 
TTITLE5=黄叶舞秋风
TTITLE6=花样的年华
TTITLE7=采槟榔
TTITLE8=不变的心
TTITLE9=疯狂的世界
TTITLE10=永远的微笑
TTITLE11=天涯歌女
EXTD=
EXTT0=
EXTT1=
EXTT2=
EXTT3=
EXTT4=
EXTT5=
EXTT6=
EXTT7=
EXTT8=
EXTT9=
EXTT10=
EXTT11=
PLAYORDER=
